<svg xmlns="http://www.w3.org/2000/svg" width="350" height="150" viewBox="0,0,350,150"><rect width="100%" height="100%" fill="#fff"/><path fill="#ec63ca" d="M146.28 93.37L146.25 93.34L146.29 93.37L146.43 93.52L147.50 97.69L147.53 97.72L147.56 97.74Q144.77 96.87 141.85 96.48L141.85 96.48Q138.49 96.03 134.96 96.24L134.96 96.24L134.93 96.21L134.93 96.21Q131.40 96.40 128.11 97.30L128.11 97.30Q125.29 98.08 122.66 99.38L122.66 99.38L122.74 99.46L122.66 99.38L122.77 99.49Q122.86 98.83 122.92 98.58L122.92 98.58Q122.96 98.41 122.98 98.46L122.98 98.46L122.99 98.47L123.07 98.54L134.01 86.59L133.92 86.50L141.99 72.75L141.91 72.68Q142.35 71.42 142.03 70.36L142.03 70.36Q141.75 69.44 140.91 68.66L140.91 68.66L140.92 68.67L140.90 68.65L140.87 68.62L136.52 67.18L136.38 67.04L136.43 67.09L135.39 66.98L135.43 67.02L135.41 67.00Q134.45 67.02 133.55 67.31L133.55 67.31Q132.48 67.65 131.50 68.36L131.50 68.36L131.48 68.34L131.62 68.48L131.57 68.43Q130.71 69.35 130.33 70.67L130.33 70.67Q129.88 72.17 130.06 74.21L130.06 74.21L130.01 74.16L130.06 74.21L125.72 73.02L125.70 73.00Q125.62 71.98 125.54 70.91L125.54 70.91Q125.48 69.99 125.43 69.04L125.43 69.04L125.30 68.90L125.22 68.82L125.21 68.81L126.11 64.99L126.16 65.03Q127.24 63.98 128.89 63.42L128.89 63.42Q130.71 62.80 133.23 62.80L133.23 62.80L133.40 62.98L135.90 62.97L135.96 63.04Q137.27 63.01 138.26 63.03L138.26 63.03Q139.68 63.05 140.48 63.15L140.48 63.15L140.51 63.18L140.55 63.22L140.49 63.16L147.06 67.23L147.07 67.23Q147.09 67.62 147.07 68.10L147.07 68.10Q147.06 68.57 147.00 69.13L147.00 69.13L147.19 69.32L147.10 69.22L147.02 69.14L146.84 71.14L146.94 71.23Q145.53 77.37 141.70 83.05L141.70 83.05Q138.47 87.86 133.51 92.34L133.51 92.34L133.62 92.45L133.72 92.55L133.68 92.51Q134.69 92.43 135.67 92.39L135.67 92.39Q136.70 92.35 137.71 92.35L137.71 92.35L137.63 92.28L137.73 92.38Q139.82 92.31 141.81 92.52L141.81 92.52Q144.11 92.76 146.29 93.38L146.29 93.38ZM145.63 63.78L145.49 63.64L145.45 63.60L140.88 62.73L135.92 62.40L135.90 62.38L135.98 62.46Q133.06 62.26 130.81 62.48L130.81 62.48Q128.13 62.74 126.41 63.60L126.41 63.60L126.38 63.57L126.46 63.64L126.39 63.57L124.77 68.37L124.79 68.39L125.30 73.47L125.39 73.57L125.32 73.49L127.90 74.38L127.76 74.98L127.75 75.70L127.88 75.83L127.93 77.24L128.02 77.33L127.92 77.23Q128.62 77.22 129.70 77.28L129.70 77.28Q131.08 77.35 133.06 77.53L133.06 77.53L133.29 77.76L133.15 77.63L133.15 77.63L133.21 76.71L133.04 76.54L134.80 72.01L134.97 72.18L139.20 70.35L139.17 70.32L139.09 70.24L141.35 70.59L141.31 70.55L141.57 71.68L141.58 71.70Q141.67 72.02 141.70 72.30L141.70 72.30Q141.74 72.66 141.68 72.94L141.68 72.94L141.66 72.92L141.62 72.88L141.52 72.78L133.40 86.46L133.42 86.49L133.41 86.48L122.72 98.47L122.59 98.34L121.82 100.34L121.80 100.32Q123.04 99.82 124.19 99.39L124.19 99.39Q125.38 98.93 126.49 98.54L126.49 98.54L126.41 98.46L126.40 98.45L124.01 101.39L123.89 101.26Q123.77 101.53 123.66 101.81L123.66 101.81Q123.59 102.00 123.52 102.20L123.52 102.20L123.54 102.23L123.60 102.28L123.53 102.21L138.33 99.55L138.41 99.64L138.38 99.60L153.09 103.27L151.54 100.10L151.56 100.11L150.41 97.22L150.39 97.20L150.26 97.07L147.49 95.88L147.48 95.87L147.65 96.04L146.78 92.94L146.81 92.97Q145.01 92.50 143.18 92.20L143.18 92.20Q141.79 91.98 140.37 91.86L140.37 91.86L140.36 91.85L140.45 91.94Q143.84 88.69 146.08 84.08L146.08 84.08Q148.29 79.53 149.37 73.67L149.37 73.67L149.31 73.61L149.43 69.32L149.48 69.37Q149.37 67.87 148.76 66.91L148.76 66.91Q148.30 66.18 147.55 65.76L147.55 65.76L147.63 65.84L147.67 65.93L147.70 65.96L147.46 65.77L147.40 65.72L147.50 65.82Q147.21 65.01 146.54 64.38L146.54 64.38Q146.08 63.94 145.44 63.59L145.44 63.59"/><path fill="#4bd2d2" d="M65.40 80.94L65.37 80.91L65.51 81.06Q64.27 80.96 63.23 81.27L63.23 81.27Q61.88 81.67 60.90 82.75L60.90 82.75L60.99 82.84L60.99 82.84L61.02 82.87L59.02 87.45L59.06 87.49Q59.02 89.03 59.39 90.17L59.39 90.17Q59.80 91.41 60.71 92.16L60.71 92.16L60.63 92.08L60.56 92.01Q61.31 92.64 62.27 92.99L62.27 92.99Q63.64 93.49 65.43 93.43L65.43 93.43L65.30 93.30L65.29 93.29Q66.73 93.24 67.81 92.96L67.81 92.96Q69.28 92.59 70.06 91.81L70.06 91.81L70.08 91.82L69.92 91.66L71.30 87.06L71.37 87.13Q71.20 85.56 70.65 84.34L70.65 84.34Q70.21 83.37 69.52 82.62L69.52 82.62L69.53 82.63L69.53 82.62L69.61 82.71Q68.75 81.74 67.47 81.35L67.47 81.35Q66.60 81.09 65.55 81.09L65.55 81.09ZM65.47 67.58L65.38 67.49L65.48 67.59L65.42 67.53Q64.32 67.47 63.24 67.67L63.24 67.67Q62.40 67.83 61.57 68.14L61.57 68.14L61.38 67.95L61.47 68.04L61.43 68.00L59.92 71.82L59.85 71.75L65.49 77.23L65.55 77.29L65.51 77.24L69.01 75.74L69.07 75.80L69.09 75.82L70.63 72.03L70.55 71.95Q70.61 70.46 70.27 69.55L70.27 69.55Q70.04 68.93 69.62 68.57L69.62 68.57L69.72 68.67L69.75 68.71L69.62 68.57ZM64.94 96.80L65.10 96.96L62.95 96.98L60.69 96.90L60.71 96.92L56.56 95.60L56.60 95.64Q55.38 94.61 54.94 92.80L54.94 92.80Q54.63 91.49 54.72 89.79L54.72 89.79L54.81 89.88L54.93 89.99Q55.23 84.88 56.76 82.04L56.76 82.04Q58.18 79.40 60.67 78.72L60.67 78.72L60.63 78.67L60.64 78.69L55.52 69.76L55.63 69.87L55.58 69.82L55.18 66.65L55.20 66.66L60.73 63.39L60.80 63.45Q63.28 63.46 65.09 63.50L65.09 63.50Q67.79 63.57 69.02 63.74L69.02 63.74L69.01 63.73L69.02 63.73L75.12 67.33L75.16 67.38L75.14 67.35Q75.09 67.71 75.06 68.04L75.06 68.04Q75.05 68.28 75.05 68.51L75.05 68.51L75.14 68.60L75.24 68.70L75.16 68.62Q75.19 69.04 75.16 69.44L75.16 69.44Q75.12 70.02 74.96 70.54L74.96 70.54L75.05 70.64L74.92 70.50L69.92 78.78L69.94 78.79L75.61 87.45L75.57 87.41L75.61 87.45L75.67 89.53L75.72 89.58L73.58 95.05L73.55 95.02L73.49 94.96Q72.49 95.57 70.34 96.05L70.34 96.05Q68.22 96.51 64.98 96.83L64.98 96.83ZM68.18 100.10L68.27 100.19L73.09 100.32L73.13 100.37L73.09 100.32L77.70 99.39L77.60 99.28Q78.46 98.75 78.90 97.77L78.90 97.77Q79.30 96.87 79.35 95.60L79.35 95.60L79.36 95.61L79.32 95.57Q79.39 94.98 79.34 94.18L79.34 94.18Q79.27 92.99 78.95 91.33L78.95 91.33L78.86 91.25L78.83 91.22Q78.20 87.80 77.08 85.44L77.08 85.44Q76.06 83.29 74.64 82.02L74.64 82.02L74.62 82.01L74.49 81.74L74.32 81.43L74.24 81.29L74.03 81.04L73.86 80.70L73.99 80.83L73.97 80.81L77.46 72.77L77.44 72.76Q77.46 72.53 77.49 72.17L77.49 72.17Q77.52 71.71 77.58 71.04L77.58 71.04L77.63 71.09L77.58 71.05L77.53 70.99Q77.66 70.50 77.68 70.01L77.68 70.01Q77.70 69.64 77.65 69.26L77.65 69.26L77.69 69.30L77.64 69.25Q77.53 68.35 77.16 67.71L77.16 67.71Q76.67 66.85 75.70 66.45L75.70 66.45L75.80 66.55L75.86 66.55L75.51 66.30L75.50 66.30L75.51 66.31Q75.33 65.84 74.91 65.36L74.91 65.36Q74.36 64.75 73.41 64.10L73.41 64.10L73.45 64.13L73.54 64.20L73.49 64.13L73.55 64.19L73.53 64.16L64.94 62.97L64.95 62.98L64.79 62.82Q63.75 62.74 62.78 62.74L62.78 62.74Q61.65 62.73 60.60 62.82L60.60 62.82L60.72 62.94L60.63 62.85L60.71 62.93L57.71 63.19L57.58 63.07L54.55 66.02L54.50 65.96Q54.54 66.34 54.58 66.77L54.58 66.77Q54.62 67.32 54.65 67.96L54.65 67.96L54.55 67.86L54.53 67.85Q54.64 68.24 54.88 69.20L54.88 69.20Q55.14 70.27 55.57 72.04L55.57 72.04L55.53 72.00L55.54 72.00Q56.07 74.07 56.85 75.60L56.85 75.60Q57.85 77.53 59.25 78.60L59.25 78.60L59.14 78.49L59.15 78.50L59.30 78.65L59.39 78.74L54.66 87.98L54.57 87.89L54.53 87.86L54.20 92.26L54.19 92.25L56.07 96.19L56.10 96.22L56.01 96.14L56.61 96.57L56.56 96.52ZM67.71 84.29L67.83 84.41L67.91 84.49L67.80 84.37L70.43 84.99L70.39 84.95L70.74 86.99L70.80 87.05L70.81 87.06Q70.84 87.28 70.86 87.49L70.86 87.49Q70.87 87.72 70.87 87.94L70.87 87.94L70.96 88.02L70.95 88.02L70.89 87.96L67.52 92.41L67.68 92.58Q67.13 92.80 66.58 92.88L66.58 92.88Q66.00 92.95 65.42 92.87L65.42 92.87L65.43 92.88L65.26 92.71L65.27 92.72Q64.50 92.81 63.72 92.70L63.72 92.70Q62.91 92.58 62.08 92.25L62.08 92.25L62.20 92.37L62.09 92.26L62.08 92.25Q61.91 91.82 61.85 91.27L61.85 91.27Q61.78 90.68 61.83 89.94L61.83 89.94L61.75 89.86L61.71 89.81L61.85 89.96Q61.99 88.94 62.43 88.02L62.43 88.02Q62.94 86.95 63.86 86.01L63.86 86.01L63.77 85.92L63.77 85.92Q64.66 85.02 65.70 84.64L65.70 84.64Q66.67 84.27 67.78 84.35L67.78 84.35ZM68.11 70.81L68.06 70.77L68.04 70.74L69.95 70.81L69.97 71.97L70.00 72.00Q69.98 73.00 69.63 73.87L69.63 73.87Q69.29 74.71 68.65 75.41L68.65 75.41L68.61 75.37L68.69 75.45L68.73 75.49Q68.23 76.12 67.60 76.44L67.60 76.44Q66.70 76.90 65.55 76.74L65.55 76.74L65.43 76.62L65.49 76.69L65.40 76.60Q64.72 76.62 64.22 76.55L64.22 76.55Q63.74 76.48 63.44 76.32L63.44 76.32L63.35 76.22L63.45 76.32L63.38 76.26L63.31 75.04L63.31 75.05Q63.09 74.00 63.41 73.18L63.41 73.18Q63.74 72.37 64.61 71.77L64.61 71.77L64.66 71.83L64.67 71.84L64.49 71.66"/><path fill="#46db91" d="M269.50 96.88L269.54 96.92L269.56 96.94L269.47 96.85Q268.69 96.94 267.85 96.89L267.85 96.89Q266.65 96.83 265.34 96.47L265.34 96.47L265.23 96.37L265.28 96.42L265.29 96.43Q264.20 95.59 263.67 94.42L263.67 94.42Q263.31 93.62 263.22 92.67L263.22 92.67L263.36 92.81L263.24 92.69Q263.31 92.65 263.41 91.75L263.41 91.75Q263.52 90.79 263.66 88.86L263.66 88.86L263.60 88.80L263.57 88.78L263.59 88.79L267.90 87.94L267.71 88.43L267.53 88.93L267.60 89.00Q267.48 90.13 267.79 90.93L267.79 90.93Q268.20 91.96 269.34 92.42L269.34 92.42L269.34 92.43L269.35 92.44L273.40 92.85L273.39 92.83Q274.70 92.70 275.34 92.61L275.34 92.61Q275.82 92.54 275.93 92.49L275.93 92.49L275.87 92.43L275.98 92.54L275.91 92.47Q276.56 92.41 277.13 92.22L277.13 92.22Q277.78 92.00 278.33 91.62L278.33 91.62L278.39 91.68L278.23 91.53L278.25 91.55L280.07 87.28L280.12 87.32L280.06 87.26L277.21 81.45L277.33 81.57L277.29 81.53Q275.87 80.25 274.19 79.65L274.19 79.65Q272.76 79.15 271.13 79.15L271.13 79.15L271.33 79.35L271.25 78.95L271.18 78.88L273.08 78.81L273.09 78.83Q274.36 78.76 275.46 78.35L275.46 78.35Q276.74 77.87 277.79 76.92L277.79 76.92L277.80 76.93L277.78 76.91L277.68 76.81Q278.61 75.95 279.15 74.89L279.15 74.89Q279.73 73.75 279.84 72.36L279.84 72.36L279.92 72.45L279.86 72.38L279.86 72.38Q279.87 72.09 279.87 71.82L279.87 71.82Q279.88 71.56 279.88 71.31L279.88 71.31L280.07 71.50L280.01 71.45Q279.99 70.13 279.28 69.13L279.28 69.13Q278.81 68.45 278.01 67.92L278.01 67.92L278.05 67.96L278.04 67.95Q277.20 67.41 276.21 67.17L276.21 67.17Q275.21 66.94 274.06 67.02L274.06 67.02L274.09 67.04L274.10 67.05Q273.06 66.92 272.07 67.03L272.07 67.03Q271.26 67.13 270.48 67.40L270.48 67.40L270.54 67.46L270.38 67.30L267.94 69.76L267.90 69.72Q267.84 70.35 267.84 70.93L267.84 70.93Q267.83 71.51 267.89 72.05L267.89 72.05L267.72 71.88L267.74 71.90L267.89 72.05L263.30 70.51L263.34 70.54L263.21 67.10L263.17 67.05L263.20 67.09Q263.30 65.82 263.87 64.96L263.87 64.96Q264.27 64.35 264.90 63.95L264.90 63.95L264.85 63.90L264.71 63.76Q265.53 63.40 266.40 63.19L266.40 63.19Q267.65 62.89 269.01 62.89L269.01 62.89L269.19 63.07L269.14 63.02L269.13 63.01Q271.41 63.03 273.68 63.13L273.68 63.13Q275.98 63.24 278.25 63.43L278.25 63.43L278.08 63.26L278.03 63.21L278.03 63.21L285.01 69.37L284.95 69.31Q284.90 70.48 284.67 71.67L284.67 71.67Q284.48 72.67 284.16 73.69L284.16 73.69L284.19 73.72L284.12 73.65Q283.46 75.75 282.33 77.14L282.33 77.14Q281.12 78.62 279.38 79.30L279.38 79.30L279.42 79.34L279.43 79.35Q280.97 79.67 282.03 80.66L282.03 80.66Q283.58 82.09 284.10 84.94L284.10 84.94L284.04 84.88L284.04 84.88L284.07 84.92L284.49 89.41L284.43 89.36Q284.53 92.79 282.64 94.55L282.64 94.55Q281.04 96.03 278.03 96.33L278.03 96.33L278.22 96.52L278.04 96.34Q277.63 96.43 275.99 96.55L275.99 96.55Q273.83 96.70 269.54 96.92L269.54 96.92ZM276.89 100.03L277.08 100.22L277.01 100.15L281.99 100.34L281.97 100.32L281.88 100.23Q283.02 100.30 284.12 100.15L284.12 100.15Q285.48 99.97 286.76 99.46L286.76 99.46L286.78 99.48L286.87 99.56L286.84 99.54L288.26 95.68L288.23 95.65L287.54 91.15L287.48 91.10L287.50 91.12Q286.93 87.54 285.81 85.22L285.81 85.22Q284.93 83.40 283.71 82.37L283.71 82.37L283.78 82.45L283.42 81.82L283.43 81.80L283.45 81.79L283.40 81.74L283.48 81.82Q284.75 80.71 285.66 78.49L285.66 78.49Q286.49 76.44 287.01 73.44L287.01 73.44L286.95 73.38L287.10 73.53L287.05 73.48L287.35 71.55L287.32 71.52L287.28 71.48L287.23 69.36L287.33 69.46L285.11 65.94L285.19 66.13L285.08 66.01L285.05 65.99Q284.83 65.35 284.40 64.84L284.40 64.84Q283.84 64.18 282.92 63.75L282.92 63.75L283.02 63.84L282.98 63.80L283.11 63.94L273.60 62.53L273.44 62.37Q272.05 62.25 270.73 62.20L270.73 62.20Q269.67 62.16 268.66 62.16L268.66 62.16L268.79 62.29L268.82 62.32L268.82 62.32Q267.54 62.37 266.27 62.70L266.27 62.70Q265.36 62.95 264.45 63.33L264.45 63.33L264.35 63.23L264.38 63.27L262.58 66.80L262.66 66.88L262.72 66.93Q262.62 66.57 262.65 67.34L262.65 67.34Q262.68 68.28 262.89 70.91L262.89 70.91L263.07 71.09L262.96 70.98L265.83 72.05L265.74 71.96Q265.82 72.48 265.84 72.92L265.84 72.92Q265.86 73.27 265.84 73.59L265.84 73.59L265.80 73.55L265.66 73.41Q265.70 73.76 265.74 74.11L265.74 74.11Q265.78 74.55 265.81 74.98L265.81 74.98L265.73 74.89L265.80 74.96L265.72 74.89L271.19 75.62L271.16 75.59L272.59 71.48L272.78 71.66Q273.27 71.22 274.11 70.91L274.11 70.91Q275.17 70.51 276.78 70.33L276.78 70.33L276.79 70.34L276.85 70.41L279.21 70.59L279.25 70.63L279.23 70.61Q279.25 70.68 279.27 70.77L279.27 70.77Q279.30 70.84 279.32 70.92L279.32 70.92L279.29 70.89L279.23 70.96L279.33 71.20L279.49 71.69L279.53 72.05L279.42 71.94L279.49 72.02L279.40 72.46L279.51 72.57Q279.42 73.94 278.69 75.07L278.69 75.07Q278.13 75.93 277.18 76.66L277.18 76.66L277.16 76.64L277.16 76.64L272.86 78.11L273.03 78.28L273.06 78.31Q272.65 78.43 272.20 78.50L272.20 78.50Q271.57 78.59 270.84 78.59L270.84 78.59L270.67 78.42L270.76 78.51L270.69 78.44L270.90 79.84L271.01 79.95L270.92 79.87L275.53 80.94L275.45 81.02L274.35 81.18L273.10 81.17L273.08 81.15Q273.22 81.55 273.34 82.00L273.34 82.00Q273.43 82.34 273.50 82.71L273.50 82.71L273.36 82.58L273.26 82.48L273.25 82.47Q274.93 82.50 276.40 83.04L276.40 83.04Q277.75 83.53 278.92 84.44L278.92 84.44L278.84 84.35L278.93 84.45L279.59 87.23L279.69 87.33L275.75 92.09L275.62 91.96L271.83 92.30L271.93 92.40L270.55 92.17L270.41 91.38L270.47 91.02L270.59 90.74L270.61 90.16L270.70 90.00L270.83 89.89L270.89 89.95L270.80 89.86L268.20 90.15L268.31 90.25L268.26 90.21L268.17 89.57L268.19 89.59L268.15 88.90L268.11 88.86L268.27 89.01Q268.24 88.73 268.26 88.39L268.26 88.39Q268.29 87.88 268.42 87.26L268.42 87.26L268.47 87.31L268.59 87.44Q267.24 87.50 265.94 87.64L265.94 87.64Q264.47 87.79 263.06 88.05L263.06 88.05L263.15 88.14L263.07 88.06L263.07 90.54L262.98 90.45L263.02 90.48Q262.90 91.29 262.85 91.92L262.85 91.92Q262.80 92.49 262.80 92.90L262.80 92.90L262.79 92.90L262.93 93.03Q262.93 94.53 263.49 95.55L263.49 95.55Q263.98 96.44 264.90 96.96L264.90 96.96L264.83 96.89L264.76 96.82L264.86 96.91L273.71 99.90L273.75 99.94Q274.25 99.84 275.12 99.87L275.12 99.87Q275.85 99.88 276.84 99.98L276.84 99.98"/><path fill="#e75f5f" d="M200.80 96.91L200.90 97.01L200.95 97.06Q197.86 97.17 196.00 96.33L196.00 96.33Q194.28 95.55 193.60 93.96L193.60 93.96L193.73 94.08L193.72 94.07Q194.33 93.30 195.30 92.15L195.30 92.15Q196.05 91.26 197.02 90.15L197.02 90.15L196.98 90.10L197.00 90.12L196.94 90.06Q197.26 91.57 198.70 92.30L198.70 92.30Q199.88 92.90 201.81 92.97L201.81 92.97L201.97 93.13L202.00 93.17L201.88 93.04Q204.05 93.10 205.72 92.76L205.72 92.76Q207.79 92.33 209.09 91.28L209.09 91.28L209.13 91.32L209.12 91.31L209.14 91.33L211.02 85.16L210.96 85.10L210.96 85.10L204.04 78.34L204.01 78.31Q201.80 78.34 200.06 78.85L200.06 78.85Q198.50 79.31 197.32 80.16L197.32 80.16L197.45 80.29L197.26 80.21L196.95 80.01L196.61 79.78L196.59 79.75Q196.92 77.26 197.01 74.93L197.01 74.93Q197.09 73.13 197.02 71.43L197.02 71.43L197.06 71.47L197.02 71.44Q196.93 69.58 196.77 67.48L196.77 67.48Q196.60 65.33 196.35 62.93L196.35 62.93L196.32 62.90L196.29 62.87L196.40 62.99Q199.03 63.71 201.69 64.04L201.69 64.04Q204.42 64.38 207.18 64.29L207.18 64.29L207.01 64.12L207.10 64.22L207.10 64.22Q209.94 64.13 212.71 63.58L212.71 63.58Q215.17 63.09 217.58 62.25L217.58 62.25L217.49 62.16L216.72 64.37L216.67 64.33Q216.46 64.79 216.29 65.29L216.29 65.29Q216.07 65.91 215.92 66.57L215.92 66.57L216.00 66.64L216.03 66.68L215.97 66.61Q213.58 67.46 210.84 67.84L210.84 67.84Q208.56 68.16 206.04 68.16L206.04 68.16L206.07 68.19L206.00 68.12L206.07 68.19L201.83 67.92L201.92 68.01L201.24 75.27L201.19 75.22L205.30 74.33L205.29 74.31L205.39 74.42L212.72 77.07L212.83 77.19L212.80 77.15Q213.83 78.29 214.42 80.39L214.42 80.39Q214.93 82.23 215.11 84.79L215.11 84.79L215.02 84.70L215.01 84.69Q215.27 88.07 214.84 90.47L214.84 90.47Q214.50 92.36 213.73 93.64L213.73 93.64L213.69 93.60L213.78 93.69L206.08 96.64L206.09 96.65ZM209.60 100.32L209.47 100.20L209.44 100.17Q212.22 100.21 214.30 99.71L214.30 99.71Q215.85 99.33 217.01 98.66L217.01 98.66L217.14 98.78L217.14 98.79Q217.85 97.76 218.21 96.52L218.21 96.52Q218.60 95.21 218.60 93.66L218.60 93.66L218.57 93.63L218.59 93.66L217.11 83.25L217.03 83.17L217.15 83.29L214.92 78.83L215.02 78.96L214.97 78.94L214.58 78.44L214.23 78.31L214.11 78.19L214.10 78.18L212.82 76.25L212.82 76.27L212.77 76.25L212.76 76.24L212.83 76.31Q211.52 74.87 209.23 74.25L209.23 74.25Q207.51 73.79 205.25 73.79L205.25 73.79L205.38 73.91L205.24 73.97L205.00 73.92L204.99 73.91L205.22 71.37L205.28 71.43Q209.33 71.51 212.94 70.79L212.94 70.79Q215.67 70.24 218.15 69.24L218.15 69.24L218.26 69.34L218.14 69.23L218.11 69.19L220.12 63.21L218.72 63.98L217.16 64.60L217.13 64.57L217.17 64.61L218.40 61.32L218.41 61.34L218.51 61.43L207.07 63.53L207.13 63.60L195.51 62.09L195.61 62.19L195.61 62.19L196.41 74.63L196.56 74.78Q196.53 76.06 196.47 77.36L196.47 77.36Q196.41 78.74 196.32 80.15L196.32 80.15L196.32 80.14L196.42 80.24Q196.55 80.32 196.78 80.46L196.78 80.46Q197.08 80.62 197.54 80.87L197.54 80.87L197.49 80.82L197.63 80.96L198.90 80.00L198.93 80.04L198.99 80.09Q198.94 80.58 198.84 81.32L198.84 81.32Q198.73 82.15 198.56 83.31L198.56 83.31L198.54 83.29L198.66 83.41L198.61 83.35Q198.86 83.45 199.13 83.58L199.13 83.58Q199.43 83.72 199.74 83.89L199.74 83.89L199.82 83.96L199.70 83.84L206.34 81.35L206.40 81.41L206.47 81.48Q207.34 81.51 208.16 81.71L208.16 81.71Q209.19 81.96 210.13 82.48L210.13 82.48L210.03 82.38L210.09 82.44L210.08 82.42L210.55 85.18L210.54 85.17L210.52 85.15L209.11 90.38L209.17 90.44L209.25 90.52Q208.24 91.50 206.83 92.05L206.83 92.05Q205.64 92.52 204.17 92.67L204.17 92.67L203.95 92.45L203.99 92.49L203.93 92.43Q203.32 92.52 202.78 92.54L202.78 92.54Q202.18 92.56 201.67 92.50L201.67 92.50L201.73 92.57L201.72 92.56L199.40 91.87L199.40 91.73L199.35 91.55L199.26 91.78L199.20 91.72L199.21 91.73L197.34 89.16L197.26 89.07L197.28 89.09L192.95 94.12L192.90 94.06L194.54 96.36L194.67 96.50L200.12 99.72L200.20 99.80L200.15 99.74Q201.07 99.91 203.80 100.04L203.80 100.04Q206.04 100.15 209.50 100.22L209.50 100.22"/><path d="M17 40 C178 112,161 136,337 25" stroke="#7bee7b" fill="none"/></svg>