<svg xmlns="http://www.w3.org/2000/svg" width="350" height="150" viewBox="0,0,350,150"><rect width="100%" height="100%" fill="#fff"/><path fill="#48e999" d="M70.95 78.14L70.94 78.14L70.90 78.09L74.08 77.90L74.03 77.86L74.01 77.84Q73.96 78.34 73.94 78.86L73.94 78.86Q73.92 79.25 73.92 79.65L73.92 79.65L73.91 79.64L73.94 81.46L73.92 81.44Q73.22 81.43 72.53 81.46L72.53 81.46Q72.02 81.49 71.51 81.53L71.51 81.53L71.61 81.63L71.57 81.60L71.56 81.59Q71.07 81.68 70.55 81.71L70.55 81.71Q69.95 81.75 69.31 81.73L69.31 81.73L69.19 81.60L69.12 81.54Q67.23 85.90 65.11 89.70L65.11 89.70Q62.85 93.72 60.33 97.11L60.33 97.11L60.15 96.93L60.19 96.97L60.26 97.04Q58.40 97.56 57.01 98.05L57.01 98.05Q55.76 98.48 54.88 98.89L54.88 98.89L54.75 98.77L54.89 98.90Q58.23 94.07 61.11 89.01L61.11 89.01Q63.17 85.38 64.98 81.64L64.98 81.64L64.95 81.60L63.11 81.65L61.25 81.66L61.21 81.62L61.20 81.61L61.08 77.85L61.16 77.93L61.09 77.86Q62.22 77.96 63.37 78.02L63.37 78.02Q65.04 78.11 66.78 78.11L66.78 78.11L66.72 78.04L68.03 75.36L69.52 72.86L69.43 72.76Q70.12 71.73 70.83 70.73L70.83 70.73Q71.82 69.34 72.83 68.01L72.83 68.01L72.65 67.82L72.57 67.74L72.63 67.80L68.14 68.05L68.04 67.95L54.00 64.84L53.65 63.72L53.10 62.42L53.10 62.42Q52.93 61.93 52.73 61.40L52.73 61.40Q52.49 60.77 52.19 60.09L52.19 60.09L52.16 60.06L52.15 60.06L66.52 64.15L66.38 64.00L66.38 64.01Q69.63 64.16 72.87 63.69L72.87 63.69Q76.98 63.10 81.08 61.52L81.08 61.52L81.11 61.55L81.21 61.65L80.21 63.48L80.25 63.51L80.12 63.39Q77.99 66.15 76.05 69.11L76.05 69.11Q73.25 73.37 70.84 78.03L70.84 78.03ZM82.43 65.37L82.40 65.33L83.07 63.86L83.92 62.57L83.82 62.46L83.85 62.50L80.04 64.18L80.24 64.02L80.35 63.78L80.40 63.83L80.41 63.84L80.79 63.51L80.75 63.47L80.67 63.39L82.20 60.47L82.26 60.52L82.36 60.62Q78.53 62.29 74.54 63.03L74.54 63.03Q70.63 63.76 66.57 63.60L66.57 63.60L66.41 63.43L66.37 63.39L51.04 58.84L51.16 58.95L51.10 58.89Q51.97 60.47 52.75 62.43L52.75 62.43Q53.29 63.81 53.79 65.39L53.79 65.39L53.82 65.42L53.86 65.46L53.79 65.39Q54.43 65.77 55.00 66.06L55.00 66.06Q55.83 66.49 56.50 66.74L56.50 66.74L56.46 66.70L56.43 66.67L57.21 69.74L57.37 69.89L69.63 71.33L69.58 71.28L69.69 71.40Q69.46 71.87 68.44 73.82L68.44 73.82Q67.67 75.30 66.45 77.61L66.45 77.61L66.48 77.65L66.45 77.61L66.39 77.56Q65.18 77.58 63.99 77.54L63.99 77.54Q62.32 77.49 60.67 77.33L60.67 77.33L60.68 77.34L60.63 77.28Q60.64 77.91 60.65 78.58L60.65 78.58Q60.65 79.10 60.65 79.65L60.65 79.65L60.81 79.81L60.71 80.93L60.71 82.16L63.20 82.25L63.10 83.16L63.10 84.16L63.12 84.18L63.10 84.17L53.59 99.89L53.49 99.79L53.56 99.86Q54.53 99.40 55.51 99.01L55.51 99.01Q56.84 98.48 58.19 98.07L58.19 98.07L58.33 98.21L58.32 98.20Q57.85 98.74 57.21 99.53L57.21 99.53Q56.40 100.51 55.31 101.88L55.31 101.88L55.23 101.80L55.27 101.84L63.21 99.88L63.25 99.92L63.22 99.89Q65.28 97.31 67.39 93.70L67.39 93.70Q69.63 89.87 71.93 84.89L71.93 84.89L71.97 84.93L76.79 85.12L76.74 85.08L76.69 82.53L76.69 81.25L76.78 80.06L76.69 79.97L75.62 80.12L75.55 80.05L75.50 80.01Q75.24 80.11 75.01 80.17L75.01 80.17Q74.73 80.24 74.52 80.24L74.52 80.24L74.44 80.17L74.40 80.13L74.31 80.04L74.37 79.66L74.33 79.43L74.38 79.29L74.46 79.37Q76.03 76.20 77.74 73.17L77.74 73.17Q79.99 69.19 82.49 65.43L82.49 65.43"/><path fill="#8ee5ba" d="M269.56 96.94L269.54 96.92L269.56 96.94Q268.46 96.93 267.33 96.77L267.33 96.77Q266.27 96.62 265.20 96.33L265.20 96.33L265.25 96.38L265.29 96.43L263.37 92.82L263.31 92.76L263.35 92.80L263.52 88.73L263.51 88.72L267.84 87.88L267.59 88.99L267.69 89.09L267.73 89.13L269.28 92.36L269.28 92.37L269.19 92.27L273.49 92.93L273.37 92.81L275.87 92.43L275.88 92.44Q276.50 92.39 277.05 92.22L277.05 92.22Q277.75 92.01 278.32 91.62L278.32 91.62L278.33 91.63L278.28 91.58L278.38 91.68Q279.17 91.08 279.58 90.22L279.58 90.22Q280.18 88.98 280.02 87.22L280.02 87.22L280.05 87.25L279.97 87.18L279.97 87.17Q279.81 85.65 279.27 84.38L279.27 84.38Q278.54 82.64 277.12 81.36L277.12 81.36L277.23 81.47L277.40 81.64L277.38 81.62L271.33 79.35L271.34 79.20L271.29 78.98L271.32 79.02L271.27 78.96Q271.55 78.91 272.07 78.85L272.07 78.85Q272.48 78.81 273.03 78.76L273.03 78.76L273.06 78.80L273.06 78.80L273.08 78.81L277.65 76.78L277.80 76.93L277.82 76.95Q278.86 75.93 279.39 74.66L279.39 74.66Q279.82 73.63 279.92 72.44L279.92 72.44L280.02 72.54L279.90 72.42Q279.96 72.15 279.99 71.88L279.99 71.88Q280.01 71.67 280.01 71.45L280.01 71.45L280.05 71.48L280.13 71.56L278.02 67.93L278.00 67.91L278.14 68.05Q277.25 67.46 276.24 67.20L276.24 67.20Q275.21 66.93 274.06 67.01L274.06 67.01L274.06 67.01L274.12 67.07L274.05 67.01Q273.16 66.93 272.28 67.03L272.28 67.03Q271.39 67.14 270.51 67.44L270.51 67.44L270.42 67.35L270.47 67.40L267.92 69.74L268.01 69.83L268.00 69.82L267.77 71.93L267.77 71.93L263.31 70.52L263.34 70.55L263.35 70.56L263.21 67.10L263.13 67.02L263.10 66.99Q263.19 65.83 263.67 65.01L263.67 65.01Q264.09 64.30 264.79 63.84L264.79 63.84L264.72 63.77L264.68 63.72L264.78 63.83L269.07 62.95L269.01 62.89L269.02 62.91Q271.29 62.96 273.52 63.07L273.52 63.07Q275.89 63.20 278.21 63.39L278.21 63.39L278.17 63.35L278.16 63.34Q281.10 63.54 282.75 64.58L282.75 64.58Q285.09 66.05 284.84 69.20L284.84 69.20L284.96 69.32L284.85 69.22L284.07 73.60L284.19 73.72L284.15 73.68Q283.37 76.09 281.98 77.57L281.98 77.57Q280.88 78.73 279.39 79.31L279.39 79.31L279.36 79.28L279.38 79.29L279.37 79.29Q280.99 79.59 282.06 80.69L282.06 80.69Q283.42 82.07 283.90 84.74L283.90 84.74L284.06 84.90L284.13 84.97Q284.33 85.85 284.45 87.07L284.45 87.07Q284.56 88.17 284.61 89.54L284.61 89.54L284.58 89.50L284.48 89.40Q284.58 92.63 282.93 94.39L282.93 94.39Q281.33 96.08 278.10 96.40L278.10 96.40L278.21 96.51L278.26 96.56L278.14 96.44ZM277.03 100.16L276.90 100.04L276.82 99.96L276.92 100.06L281.85 100.20L281.95 100.30L281.87 100.22Q282.89 100.25 283.89 100.11L283.89 100.11Q285.30 99.91 286.67 99.37L286.67 99.37L286.83 99.53L286.86 99.56L288.12 95.55L288.16 95.58L287.51 91.13L287.59 91.21Q287.08 87.99 286.12 85.80L286.12 85.80Q285.18 83.63 283.79 82.46L283.79 82.46L283.77 82.43L283.64 82.17L283.49 81.88L283.51 81.88L283.50 81.84L283.43 81.77L287.01 73.44L286.90 73.33L286.97 73.40Q287.05 73.09 287.14 72.51L287.14 72.51Q287.21 72.07 287.28 71.48L287.28 71.48L287.27 71.47L287.30 71.50Q287.39 70.88 287.39 70.27L287.39 70.27Q287.39 69.87 287.34 69.48L287.34 69.48L287.30 69.43L287.32 69.45Q287.14 68.26 286.64 67.41L286.64 67.41Q286.07 66.44 285.08 65.91L285.08 65.91L285.15 65.97L285.05 65.98L285.16 66.10L285.09 66.03Q284.79 65.22 284.20 64.62L284.20 64.62Q283.66 64.07 282.87 63.70L282.87 63.70L283.03 63.86L283.03 63.86L273.52 62.45L273.52 62.45L273.48 62.41L268.81 62.31L268.83 62.33L268.80 62.30L264.40 63.28L264.36 63.25Q263.59 63.76 263.17 64.57L263.17 64.57Q262.67 65.52 262.67 66.88L262.67 66.88L262.66 66.87L262.69 66.90Q262.71 66.67 262.78 67.38L262.78 67.38Q262.89 68.35 263.11 71.13L263.11 71.13L262.91 70.93L263.02 71.04L262.95 70.97Q263.13 71.02 263.63 71.19L263.63 71.19Q264.35 71.44 265.73 71.96L265.73 71.96L265.83 72.06L265.91 72.14L265.80 72.02Q265.73 72.30 265.68 72.60L265.68 72.60Q265.63 72.96 265.60 73.35L265.60 73.35L265.66 73.41L265.83 73.58L265.82 73.57Q265.72 73.80 265.67 74.09L265.67 74.09Q265.62 74.41 265.65 74.82L265.65 74.82L265.77 74.94L265.73 74.90L265.73 74.89L271.30 75.73L271.15 75.58Q271.15 74.14 271.57 73.12L271.57 73.12Q271.96 72.18 272.72 71.61L272.72 71.61L272.65 71.53L272.61 71.49L276.70 70.25L276.84 70.40L276.82 70.38L279.15 70.53L279.27 70.65L279.23 70.61Q279.30 70.74 279.34 70.85L279.34 70.85Q279.37 70.93 279.40 70.99L279.40 70.99L279.30 70.90L279.28 71.15L279.44 71.96L279.43 71.95Q279.38 72.01 279.35 72.09L279.35 72.09Q279.29 72.19 279.26 72.32L279.26 72.32L279.43 72.50L279.36 72.42Q279.31 73.85 278.58 75.01L278.58 75.01Q278.03 75.87 277.11 76.59L277.11 76.59L277.12 76.60L277.13 76.61L277.09 76.57Q276.51 77.19 275.60 77.58L275.60 77.58Q274.51 78.04 272.94 78.19L272.94 78.19L272.88 78.12L272.89 78.13L272.89 78.14Q272.46 78.33 271.94 78.42L271.94 78.42Q271.41 78.52 270.77 78.52L270.77 78.52L270.63 78.38L270.60 78.35L270.62 78.36L271.04 79.98L271.10 80.05L271.05 79.99Q272.22 79.94 273.30 80.16L273.30 80.16Q274.45 80.39 275.51 80.92L275.51 80.92L275.53 80.94L275.42 81.00L273.20 81.28L273.15 81.22L273.33 82.55L273.35 82.57L278.92 84.44L278.82 84.34L279.57 87.21L279.58 87.22L275.71 92.05L275.65 91.99L275.73 92.07L271.86 92.34L271.87 92.34L271.84 92.32Q271.54 92.26 271.19 92.20L271.19 92.20Q270.85 92.14 270.47 92.09L270.47 92.09L270.54 92.16L270.42 91.38L270.56 91.12L270.66 90.81L270.66 90.21L270.58 89.89L270.68 89.74L270.74 89.81L270.72 89.78L268.24 90.19L268.24 90.18L268.28 90.22Q268.20 90.00 268.17 89.82L268.17 89.82Q268.14 89.67 268.14 89.54L268.14 89.54L268.18 89.58L268.25 89.65L268.25 89.65L268.13 88.88L268.23 88.98L268.33 89.08L268.46 87.30L268.50 87.34L263.10 88.08L263.15 88.13L263.09 90.56L262.92 90.39Q262.87 91.30 262.84 91.97L262.84 91.97Q262.82 92.52 262.82 92.92L262.82 92.92L262.85 92.95L262.83 92.93L264.83 96.89L264.75 96.81L264.87 96.92L273.82 100.00L273.91 100.09L273.82 100.00Q274.43 100.01 275.39 100.08L275.39 100.08Q276.14 100.13 277.09 100.23L277.09 100.23"/><path fill="#e24091" d="M205.51 72.72L205.52 72.73L205.50 72.70L198.37 71.23L198.41 71.27L198.30 71.16Q200.07 70.25 202.61 68.36L202.61 68.36Q205.32 66.35 208.92 63.23L208.92 63.23L208.86 63.17L208.88 63.20L208.90 63.22Q209.30 63.06 209.86 62.82L209.86 62.82Q210.62 62.48 211.69 61.98L211.69 61.98L211.68 61.97L211.72 62.01L209.65 79.58L209.73 79.66Q209.60 84.20 209.92 88.68L209.92 88.68Q210.24 93.04 210.99 97.34L210.99 97.34L211.09 97.44L211.02 97.37L211.13 97.48L205.72 96.31L205.60 96.19L205.46 84.47L205.40 84.41L205.47 84.48ZM204.96 75.92L204.89 96.68L204.87 96.66L204.95 96.74L208.01 96.97L208.13 97.09L208.36 99.88L208.52 100.04L215.91 103.83L215.99 103.92Q214.36 99.19 213.48 94.34L213.48 94.34Q212.48 88.81 212.45 83.13L212.45 83.13L212.33 83.02L212.49 83.18L214.87 62.07L214.98 62.17L211.79 64.20L211.87 64.28L211.97 64.38L212.63 61.07L212.67 61.11L212.66 61.11Q211.54 61.64 210.41 62.05L210.41 62.05Q209.50 62.37 208.57 62.62L208.57 62.62L208.64 62.68L208.65 62.70L208.60 62.64Q206.30 64.84 203.85 66.69L203.85 66.69Q200.59 69.16 197.08 71.03L197.08 71.03L197.07 71.02L197.15 71.10L197.18 71.13L202.43 73.06L202.46 73.09L199.67 75.36L199.65 75.34L199.78 75.47Q200.91 75.68 202.44 75.77L202.44 75.77Q203.55 75.83 204.87 75.83L204.87 75.83L204.97 75.93"/><path d="M4 8 C192 45,193 30,343 6" stroke="#e67ee6" fill="none"/><path fill="#7450e1" d="M130.34 96.92L130.41 96.99L130.40 96.98L130.38 96.96L125.99 96.33L126.12 96.46Q125.21 95.76 124.69 94.86L124.69 94.86Q124.11 93.87 124.00 92.64L124.00 92.64L124.04 92.69L124.16 92.81Q124.17 92.73 124.21 92.04L124.21 92.04Q124.28 91.06 124.44 88.85L124.44 88.85L124.34 88.74L124.37 88.78L124.35 88.76Q125.14 88.63 126.33 88.41L126.33 88.41Q127.37 88.22 128.73 87.97L128.73 87.97L128.62 87.86L128.44 89.04L128.45 89.05Q128.26 90.13 128.55 90.90L128.55 90.90Q128.91 91.87 130.04 92.33L130.04 92.33L130.11 92.40L130.15 92.44L129.99 92.28Q130.56 92.54 131.51 92.68L131.51 92.68Q132.61 92.84 134.20 92.84L134.20 92.84L134.19 92.83L134.19 92.83L136.77 92.53L136.80 92.56L136.81 92.57L139.03 91.52L139.17 91.67L140.74 87.15L140.77 87.18Q140.71 85.68 140.18 84.40L140.18 84.40Q139.52 82.83 138.16 81.60L138.16 81.60L138.12 81.56L138.03 81.47L132.02 79.24L132.06 78.95L132.01 78.90L131.99 78.89L133.81 78.75L133.84 78.78Q135.01 78.71 136.04 78.34L136.04 78.34Q137.40 77.86 138.52 76.85L138.52 76.85L138.59 76.92L138.56 76.89L138.63 76.96Q139.46 76.19 139.97 75.27L139.97 75.27Q140.66 74.03 140.78 72.50L140.78 72.50L140.79 72.51L140.67 72.39L140.68 72.40L140.89 71.53L140.86 71.49L138.79 67.90L138.97 68.08Q138.01 67.43 136.92 67.17L136.92 67.17Q135.94 66.94 134.86 67.02L134.86 67.02L134.94 67.09L134.84 66.99L131.25 67.37L131.28 67.41L128.69 69.71L128.76 69.78L128.78 69.80Q128.60 70.18 128.52 70.59L128.52 70.59Q128.39 71.18 128.46 71.82L128.46 71.82L128.61 71.97L128.68 72.04L128.69 72.05L124.11 70.51L124.22 70.63L124.20 70.61L123.85 66.94L123.95 67.04Q123.94 65.96 124.24 65.17L124.24 65.17Q124.61 64.22 125.44 63.69L125.44 63.69L125.51 63.76L125.52 63.77L129.93 63.01L129.98 63.07L129.94 63.02L138.84 63.22L138.95 63.33L138.96 63.34Q143.04 63.72 144.71 65.56L144.71 65.56Q146.03 67.02 145.84 69.40L145.84 69.40L145.67 69.24L145.62 69.18L145.75 69.32L144.86 73.59L144.96 73.69Q144.32 75.91 143.16 77.34L143.16 77.34Q142.00 78.78 140.31 79.43L140.31 79.43L140.30 79.41L140.38 79.50L140.30 79.42Q142.41 79.78 143.59 81.57L143.59 81.57Q144.42 82.83 144.78 84.82L144.78 84.82L144.85 84.89L144.91 84.95L145.35 89.47L145.21 89.34L145.23 89.35L138.90 96.40L139.01 96.51ZM137.83 100.17L137.86 100.20L137.88 100.22Q138.31 100.20 139.72 100.23L139.72 100.23Q140.89 100.25 142.74 100.30L142.74 100.30L142.64 100.19L142.58 100.14L142.68 100.23L147.60 99.50L147.48 99.38L148.93 95.55L149.04 95.67Q149.03 94.81 148.92 93.79L148.92 93.79Q148.80 92.69 148.58 91.39L148.58 91.39L148.41 91.23L148.32 91.14L148.40 91.22Q147.87 88.26 147.02 86.16L147.02 86.16Q145.97 83.60 144.45 82.32L144.45 82.32L144.54 82.41L144.32 81.91L144.35 81.92L144.21 81.75L144.28 81.82Q145.59 80.77 146.52 78.58L146.52 78.58Q147.37 76.54 147.90 73.53L147.90 73.53L147.77 73.40L147.75 73.38L147.94 73.57Q147.93 73.18 147.98 72.61L147.98 72.61Q148.02 72.12 148.09 71.49L148.09 71.49L147.97 71.37L148.02 71.42L147.99 71.39L148.10 69.43L148.08 69.41Q147.96 68.05 147.30 67.15L147.30 67.15Q146.81 66.46 146.01 66.04L146.01 66.04L145.98 66.01L145.85 65.99L145.95 66.08L143.89 63.92L143.88 63.91L143.78 63.80L134.38 62.52L134.36 62.49L134.28 62.41Q133.32 62.38 132.38 62.36L132.38 62.36Q130.99 62.33 129.63 62.33L129.63 62.33L129.67 62.37L129.61 62.31L129.63 62.33L125.12 63.20L125.10 63.18L125.09 63.17L123.36 66.77L123.50 66.92L123.47 66.89L123.88 71.10L123.77 70.99L126.49 71.92L126.54 71.96L126.54 73.49L126.62 73.56L126.50 74.86L126.52 74.88Q127.87 75.20 129.29 75.41L129.29 75.41Q130.64 75.60 132.04 75.68L132.04 75.68L132.08 75.71L132.08 75.71L132.10 75.73Q132.01 74.15 132.42 73.08L132.42 73.08Q132.78 72.15 133.51 71.59L133.51 71.59L133.45 71.53L133.55 71.63L137.50 70.25L137.56 70.31L137.65 70.40Q138.54 70.40 139.19 70.48L139.19 70.48Q139.72 70.55 140.09 70.67L140.09 70.67L139.97 70.55L140.01 70.59L139.98 70.56Q139.97 70.59 139.97 70.64L139.97 70.64Q139.97 70.70 140.00 70.80L140.00 70.80L140.18 70.98L140.12 71.19L140.28 71.68L140.26 71.98L140.30 72.02L140.19 71.91Q140.28 72.12 140.32 72.28L140.32 72.28Q140.37 72.48 140.34 72.61L140.34 72.61L140.28 72.55L140.27 72.54L137.97 76.65L138.05 76.73L138.00 76.68L133.78 78.23L133.74 78.19L133.82 78.27Q133.15 78.29 132.46 78.29L132.46 78.29Q131.91 78.30 131.35 78.30L131.35 78.30L131.52 78.47L131.43 78.38L131.38 78.33L131.80 79.95L131.83 79.97L136.23 80.85L136.25 81.03L135.04 81.06L133.94 81.22L133.86 81.14L134.18 82.60L134.13 82.55L134.07 82.49Q135.61 82.45 137.00 82.91L137.00 82.91Q138.37 83.36 139.59 84.31L139.59 84.31L139.61 84.33L139.64 84.36L139.55 84.26L140.36 87.20L140.44 87.28L140.44 87.28Q140.57 89.53 139.40 90.73L139.40 90.73Q138.41 91.76 136.49 92.03L136.49 92.03L136.56 92.10L136.56 92.10Q135.13 92.23 134.19 92.29L134.19 92.29Q133.09 92.36 132.66 92.33L132.66 92.33L132.72 92.39L132.64 92.32L132.61 92.28L131.35 92.17L131.18 91.35L131.40 90.75L131.54 90.59L131.54 90.29L131.51 90.01L131.45 89.71L131.47 89.73L129.02 90.16L129.08 90.22Q129.00 90.02 128.96 89.86L128.96 89.86Q128.91 89.66 128.91 89.51L128.91 89.51L128.95 89.55L128.92 89.52L128.97 89.57Q129.02 89.47 129.05 89.35L129.05 89.35Q129.08 89.20 129.08 89.03L129.08 89.03L129.08 89.03L129.11 89.06Q129.12 88.78 129.17 88.42L129.17 88.42Q129.24 87.97 129.36 87.40L129.36 87.40L129.25 87.29L129.36 87.40L129.34 87.39Q127.98 87.53 126.62 87.73L126.62 87.73Q125.29 87.92 123.97 88.16L123.97 88.16L123.95 88.14L123.94 88.13Q123.90 88.46 123.84 89.04L123.84 89.04Q123.78 89.59 123.70 90.36L123.70 90.36L123.85 90.52L123.88 90.54L123.81 90.48L123.60 92.90L123.73 93.03L125.68 96.94L125.73 96.99L125.78 97.04Q127.05 98.97 129.86 99.69L129.86 99.69Q131.88 100.21 134.71 100.10L134.71 100.10L134.67 100.05L134.54 99.92"/></svg>