<svg xmlns="http://www.w3.org/2000/svg" width="350" height="150" viewBox="0,0,350,150"><rect width="100%" height="100%" fill="#fff"/><path fill="#e99376" d="M275.02 72.63L275.08 72.69L275.12 72.72L275.05 72.66L267.96 71.22L267.95 71.21L268.03 71.29Q269.93 70.13 272.90 67.77L272.90 67.77Q275.31 65.86 278.43 63.15L278.43 63.15L278.39 63.10L278.50 63.22L278.57 63.29L281.33 62.02L281.41 62.10L279.28 79.61L279.26 79.59L280.56 97.31L280.62 97.37Q279.66 96.99 278.54 96.75L278.54 96.75Q277.07 96.43 275.34 96.33L275.34 96.33L275.19 96.19L275.25 96.25Q275.12 92.69 275.07 89.20L275.07 89.20Q275.03 86.80 275.03 84.44L275.03 84.44L275.08 84.49L275.09 84.49ZM274.58 75.94L274.58 96.77L274.65 96.84L274.53 96.71L277.60 96.96L277.64 97.00L278.01 99.92L278.03 99.95Q280.47 100.48 282.65 101.76L282.65 101.76Q284.27 102.71 285.75 104.08L285.75 104.08L285.64 103.97L285.55 103.87L282.11 83.20L282.10 83.19Q282.01 77.83 282.62 72.56L282.62 72.56Q283.23 67.30 284.54 62.13L284.54 62.13L284.47 62.06L284.57 62.17Q284.11 62.48 283.15 63.13L283.15 63.13Q282.45 63.62 281.47 64.29L281.47 64.29L281.55 64.36L281.57 64.38L282.18 61.03L282.23 61.07L282.19 61.03L278.21 62.65L278.20 62.64Q275.45 65.43 272.44 67.66L272.44 67.66Q269.75 69.65 266.84 71.19L266.84 71.19L266.73 71.08L266.65 71.00L266.66 71.01Q267.48 71.65 268.51 72.11L268.51 72.11Q270.05 72.80 272.06 73.09L272.06 73.09L272.04 73.07L271.93 72.96L272.02 73.05Q271.64 73.36 271.10 73.79L271.10 73.79Q270.33 74.43 269.24 75.33L269.24 75.33L269.28 75.37L269.31 75.40Q270.33 75.60 271.67 75.69L271.67 75.69Q272.91 75.78 274.42 75.78L274.42 75.78L274.49 75.85"/><path fill="#6565eb" d="M210.08 78.07L210.20 78.20L210.16 78.15L213.23 77.85L213.23 77.86L213.16 77.78Q213.18 78.38 213.18 78.94L213.18 78.94Q213.19 79.34 213.19 79.72L213.19 79.72L213.30 79.83L213.19 80.61L213.24 81.57L213.24 81.56L213.27 81.60Q212.70 81.61 212.11 81.64L212.11 81.64Q211.51 81.67 210.91 81.73L210.91 81.73L210.76 81.58L210.73 81.55L210.73 81.55L208.33 81.54L208.38 81.59L199.44 97.02L199.48 97.06Q197.48 97.58 196.02 98.08L196.02 98.08Q194.87 98.48 194.05 98.86L194.05 98.86L193.98 98.79L193.95 98.77L193.96 98.77Q197.40 93.90 200.33 88.77L200.33 88.77Q202.35 85.23 204.12 81.58L204.12 81.58L204.32 81.78L202.47 81.80L200.46 81.67L200.53 81.74L200.40 77.96L200.44 78.01L200.31 77.88Q201.71 77.99 203.17 78.05L203.17 78.05Q204.55 78.10 205.97 78.10L205.97 78.10L205.97 78.10L208.61 72.75L208.59 72.73L208.71 72.84L211.83 67.80L211.75 67.73Q210.82 67.87 209.86 67.95L209.86 67.95Q208.63 68.05 207.34 68.05L207.34 68.05L207.29 67.99L207.18 67.89L207.27 67.98Q202.39 67.97 198.56 66.98L198.56 66.98Q195.54 66.19 193.17 64.80L193.17 64.80L193.30 64.94L192.32 62.44L192.27 62.39L192.42 62.53Q192.05 61.76 191.71 61.01L191.71 61.01Q191.46 60.46 191.23 59.93L191.23 59.93L191.28 59.98L191.22 59.93L191.32 60.03Q194.23 61.81 197.53 62.84L197.53 62.84Q201.39 64.04 205.80 64.22L205.80 64.22L205.55 63.97L205.60 64.02L205.65 64.08L220.36 61.60L220.26 61.49L219.45 63.51L219.32 63.38L219.28 63.34Q217.07 66.30 215.06 69.45L215.06 69.45Q212.41 73.60 210.09 78.09L210.09 78.09ZM221.58 65.32L221.62 65.36L222.35 63.94L223.06 62.50L222.97 62.41L219.27 64.21L219.49 63.72L219.61 63.84L219.86 63.38L219.86 63.38L219.89 63.41Q220.16 62.97 220.52 62.32L220.52 62.32Q220.95 61.58 221.50 60.56L221.50 60.56L221.45 60.51L221.43 60.49L205.59 63.41L205.68 63.50Q200.77 63.24 196.47 61.77L196.47 61.77Q193.16 60.64 190.21 58.80L190.21 58.80L190.24 58.83L190.26 58.85L192.93 65.33L192.93 65.33L195.61 66.65L195.59 66.63L195.70 66.74L196.60 69.93L196.50 69.83L208.81 71.31L208.85 71.35L205.61 77.57L205.64 77.61Q204.21 77.61 202.80 77.54L202.80 77.54Q201.32 77.47 199.88 77.33L199.88 77.33L199.86 77.32L199.97 77.43L199.93 77.39L200.03 79.83L199.94 82.18L202.45 82.30L202.46 84.32L202.48 84.35L192.83 99.93L192.74 99.84L192.83 99.93Q193.83 99.48 194.83 99.09L194.83 99.09Q196.16 98.58 197.49 98.17L197.49 98.17L197.37 98.05L197.46 98.14L197.39 98.06L194.41 101.78L194.50 101.87L194.49 101.86Q196.49 101.11 198.31 100.63L198.31 100.63Q200.50 100.06 202.41 99.88L202.41 99.88L202.47 99.94L202.49 99.96Q204.96 96.78 207.53 92.09L207.53 92.09Q209.31 88.85 211.13 84.89L211.13 84.89L211.19 84.95L216.11 85.24L216.10 85.23L215.99 85.12L216.02 82.65L215.89 79.97L215.86 79.94L214.76 80.06L214.78 80.08L213.63 80.15L213.61 80.13L213.61 80.13Q213.61 80.05 213.63 79.94L213.63 79.94Q213.64 79.85 213.67 79.76L213.67 79.76L213.63 79.72L213.71 79.42L213.56 79.27L213.55 79.26"/><path d="M10 140 C161 17,174 119,336 77" stroke="#e16987" fill="none"/><path fill="#75e051" d="M70.81 78.01L70.94 78.14L70.85 78.05Q71.34 78.05 72.00 78.01L72.00 78.01Q72.86 77.95 74.01 77.83L74.01 77.83L74.13 77.95L74.11 77.93L74.10 77.92Q74.03 78.41 74.00 78.93L74.00 78.93Q73.97 79.31 73.97 79.70L73.97 79.70L74.06 79.78L74.00 81.52L73.95 81.47L74.06 81.59Q73.28 81.46 72.57 81.44L72.57 81.44Q71.99 81.43 71.45 81.48L71.45 81.48L71.54 81.56L71.53 81.55L71.55 81.57Q71.02 81.56 70.50 81.54L70.50 81.54Q69.76 81.51 69.06 81.48L69.06 81.48L69.26 81.68L69.24 81.65L69.23 81.65L60.28 97.06L60.17 96.95L60.27 97.05L54.76 98.78L54.76 98.77L54.72 98.73L64.99 81.65L63.14 81.67L61.19 81.60L61.19 81.60L61.18 81.59L61.16 77.93L61.10 77.86Q62.56 78.00 64.07 78.06L64.07 78.06Q65.41 78.12 66.79 78.12L66.79 78.12L66.70 78.03L69.41 72.75L69.48 72.81Q70.11 71.44 70.84 70.20L70.84 70.20Q71.62 68.88 72.52 67.69L72.52 67.69L72.65 67.83L72.65 67.83Q71.57 67.91 70.48 67.95L70.48 67.95Q69.28 67.99 68.09 67.99L68.09 67.99L68.05 67.96L68.09 68.00L68.20 68.11Q63.09 68.17 59.11 67.08L59.11 67.08Q56.40 66.34 54.22 65.06L54.22 65.06L54.01 64.85L53.05 62.36L53.05 62.37L53.07 62.38L52.14 60.05L52.07 59.97Q55.57 62.09 59.67 63.13L59.67 63.13Q62.88 63.93 66.45 64.08L66.45 64.08L66.37 64.00L66.52 64.14Q69.92 64.31 73.32 63.80L73.32 63.80Q77.29 63.20 81.24 61.68L81.24 61.68L81.06 61.49L81.17 61.61L81.17 61.61L80.13 63.39L80.08 63.35L80.15 63.42ZM82.35 65.28L82.44 65.38L83.76 62.40L83.86 62.50L83.79 62.44Q83.19 62.80 82.34 63.23L82.34 63.23Q81.39 63.70 80.12 64.25L80.12 64.25L80.12 64.26L80.16 63.94L80.31 63.74L80.25 63.67L80.31 63.74L80.75 63.47L80.66 63.39L80.71 63.43L82.36 60.62L82.31 60.57L82.36 60.62L66.36 63.39L66.50 63.53Q61.65 63.29 57.37 61.84L57.37 61.84Q54.05 60.72 51.07 58.87L51.07 58.87L51.00 58.80L50.97 58.77L51.13 58.92Q51.73 60.05 52.30 61.42L52.30 61.42Q53.02 63.16 53.69 65.29L53.69 65.29L53.77 65.37L53.71 65.31L53.79 65.39Q54.68 65.91 55.43 66.27L55.43 66.27Q56.00 66.55 56.50 66.74L56.50 66.74L56.45 66.69L56.56 66.80L56.48 66.72Q56.56 66.95 56.79 67.84L56.79 67.84Q56.99 68.59 57.28 69.81L57.28 69.81L57.29 69.82L57.22 69.75Q59.58 70.70 62.80 71.11L62.80 71.11Q65.86 71.50 69.69 71.39L69.69 71.39L69.64 71.34L69.68 71.39L66.54 77.71L66.45 77.61Q64.81 77.62 63.20 77.54L63.20 77.54Q61.94 77.48 60.70 77.36L60.70 77.36L60.72 77.38L60.60 77.26Q60.65 77.89 60.68 78.54L60.68 78.54Q60.70 79.11 60.70 79.69L60.70 79.69L60.85 79.85L60.77 82.22L63.19 82.24L63.18 83.23L63.18 84.24L63.19 84.25L53.64 99.93L53.70 99.99L58.17 98.05L58.31 98.19L55.22 101.79L55.23 101.80L55.22 101.79Q57.23 101.12 59.03 100.68L59.03 100.68Q61.32 100.13 63.27 99.94L63.27 99.94L63.36 100.03L63.31 99.98L63.21 99.88Q65.35 97.27 67.53 93.57L67.53 93.57Q69.74 89.82 71.98 84.94L71.98 84.94L71.98 84.94L76.76 85.10L76.83 85.17L76.73 82.57L76.65 79.93L76.81 80.09L75.61 80.11L75.59 80.09L74.43 80.15L74.30 80.03Q74.32 79.96 74.34 79.87L74.34 79.87Q74.37 79.79 74.39 79.68L74.39 79.68L74.43 79.72L74.36 79.27L74.39 79.30L74.43 79.34Q76.16 75.73 78.10 72.30L78.10 72.30Q80.12 68.71 82.38 65.31L82.38 65.31"/><path fill="#a2e98a" d="M131.26 91.99L131.29 92.03L131.33 92.07L131.22 91.96Q132.19 92.74 133.28 92.98L133.28 92.98Q134.06 93.16 134.89 93.07L134.89 93.07L134.91 93.09L135.03 93.21Q136.98 93.26 138.20 92.15L138.20 92.15Q139.49 90.98 139.97 88.52L139.97 88.52L140.05 88.61L140.10 88.65L139.96 88.51L140.90 79.23L141.01 75.64L141.05 75.68L140.97 75.60L140.41 71.94L140.38 71.91L135.83 82.04L135.92 82.14L135.86 82.08Q134.34 85.82 133.12 88.46L133.12 88.46Q132.12 90.64 131.34 92.07L131.34 92.07ZM138.52 68.53L138.49 68.50L138.45 68.46Q137.57 67.84 136.60 67.56L136.60 67.56Q135.79 67.33 134.93 67.33L134.93 67.33L134.96 67.36L134.96 67.36L134.84 67.24L131.17 68.35L131.32 68.51L131.33 68.52Q130.53 69.10 130.05 69.89L130.05 69.89Q129.53 70.75 129.39 71.86L129.39 71.86L129.32 71.79L129.35 71.81L128.83 75.92L128.83 75.91Q128.76 75.84 128.73 76.98L128.73 76.98Q128.70 77.97 128.70 79.86L128.70 79.86L128.87 80.03L128.90 80.06L128.79 79.96L129.41 88.45L129.32 88.37L129.42 88.47Q130.78 85.20 132.95 80.39L132.95 80.39Q135.24 75.29 138.46 68.47L138.46 68.47ZM140.72 95.36L140.79 95.44L140.73 95.38L140.67 95.31L134.79 96.56L132.58 96.69L132.53 96.64L132.54 96.64L126.34 94.25L126.35 94.27L126.23 94.15L125.00 86.87L125.11 86.99L124.96 79.55L124.83 79.42Q124.84 78.57 124.80 77.01L124.80 77.01Q124.75 75.53 124.64 73.41L124.64 73.41L124.65 73.42L124.58 73.35L124.99 67.34L124.95 67.30Q125.23 65.56 126.47 64.49L126.47 64.49Q128.21 62.96 131.84 62.77L131.84 62.77L131.78 62.71L131.92 62.85L131.87 62.80L134.87 62.81L134.90 62.84L134.86 62.80L144.45 67.93L144.47 67.95L145.22 73.27L145.27 73.32L145.19 73.24L145.00 82.13L145.08 82.21Q144.97 84.39 144.83 86.00L144.83 86.00Q144.63 88.39 144.37 89.50L144.37 89.50L144.30 89.43L144.40 89.53Q143.97 91.29 143.27 92.57L143.27 92.57Q142.25 94.44 140.64 95.28L140.64 95.28ZM147.75 95.00L147.76 95.01L147.73 94.97L148.11 88.56L147.98 81.95L147.87 81.85L147.07 69.74L147.11 69.78Q146.65 68.27 145.86 67.26L145.86 67.26Q145.25 66.50 144.46 66.04L144.46 66.04L144.44 66.02L144.46 66.04L144.38 65.96Q143.26 64.10 140.73 63.15L140.73 63.15Q138.38 62.27 134.82 62.17L134.82 62.17L134.81 62.15L134.74 62.09Q134.25 62.11 133.61 62.13L133.61 62.13Q132.78 62.17 131.70 62.20L131.70 62.20L131.70 62.20L131.71 62.20L131.73 62.23Q127.92 62.25 126.09 63.77L126.09 63.77Q124.77 64.86 124.48 66.72L124.48 66.72L124.43 66.68L124.57 66.82L124.52 66.76Q124.24 68.62 124.17 70.37L124.17 70.37Q124.11 71.78 124.18 73.11L124.18 73.11L124.11 73.04L124.18 73.11L124.08 73.01L124.51 84.05L124.64 84.18Q124.53 87.08 124.53 88.82L124.53 88.82Q124.53 90.14 124.60 90.78L124.60 90.78L124.65 90.82L124.59 90.77L127.47 96.47L127.38 96.38Q128.62 98.21 130.98 99.12L130.98 99.12Q132.80 99.83 135.29 99.99L135.29 99.99L135.14 99.84L135.14 99.85Q137.65 100.01 139.16 100.08L139.16 100.08Q140.71 100.15 141.18 100.13L141.18 100.13L141.23 100.18L141.23 100.17L146.97 97.70L146.93 97.65Q147.18 97.23 147.35 96.70L147.35 96.70Q147.60 95.92 147.67 94.92L147.67 94.92ZM135.55 92.64L135.43 92.52L135.53 92.62L137.99 86.65L140.52 80.70L140.51 80.69L140.40 80.57Q140.36 81.82 140.19 83.78L140.19 83.78Q140.05 85.47 139.79 87.69L139.79 87.69L139.86 87.77L139.96 87.86L139.86 87.77ZM132.73 75.09L132.69 75.04L132.66 75.02L132.70 75.05L134.22 71.57L134.19 71.54Q134.47 71.28 134.96 71.09L134.96 71.09Q135.62 70.82 136.69 70.67L136.69 70.67L136.84 70.81L136.81 70.78Q135.63 73.14 134.43 75.81L134.43 75.81Q133.02 78.95 131.58 82.53L131.58 82.53L131.58 82.53L131.67 82.61"/></svg>